<svg width="32" height="32" viewBox="0 0 32 32" fill="none" xmlns="http://www.w3.org/2000/svg">
  <rect width="32" height="32" rx="6" fill="#1f2937"/>
  <g transform="translate(4, 4)">
    <!-- Silhueta do fisiculturista -->
    <path d="M12 2C13.5 2 14.5 3 14.5 4.5C14.5 6 13.5 7 12 7C10.5 7 9.5 6 9.5 4.5C9.5 3 10.5 2 12 2Z" fill="white"/>
    <!-- Corpo -->
    <path d="M12 7C14 7 16 8 16 10V14C16 15 15.5 16 14.5 16.5L15 20C15 21 14 22 13 22H11C10 22 9 21 9 20L9.5 16.5C8.5 16 8 15 8 14V10C8 8 10 7 12 7Z" fill="white"/>
    <!-- Braços -->
    <path d="M8 10C7 10 6 11 6 12C6 13 7 14 8 14C8.5 14 9 13.5 9 13V11C9 10.5 8.5 10 8 10Z" fill="white"/>
    <path d="M16 10C17 10 18 11 18 12C18 13 17 14 16 14C15.5 14 15 13.5 15 13V11C15 10.5 15.5 10 16 10Z" fill="white"/>
    <!-- Pernas -->
    <path d="M10 22V24H8V22H10Z" fill="white"/>
    <path d="M16 22V24H14V22H16Z" fill="white"/>
  </g>
</svg>